<?xml version="1.0" encoding="UTF-8"?>
<!DOCTYPE svg PUBLIC "-//W3C//DTD SVG 1.1//EN" "http://www.w3.org/Graphics/SVG/1.1/DTD/svg11.dtd">
<svg xmlns="http://www.w3.org/2000/svg" version="1.1" width="500px" height="500px" style="shape-rendering:geometricPrecision; text-rendering:geometricPrecision; image-rendering:optimizeQuality; fill-rule:evenodd; clip-rule:evenodd" xmlns:xlink="http://www.w3.org/1999/xlink">
<g><path style="opacity:1" fill="#030303" d="M -0.5,-0.5 C 166.167,-0.5 332.833,-0.5 499.5,-0.5C 499.5,166.167 499.5,332.833 499.5,499.5C 332.833,499.5 166.167,499.5 -0.5,499.5C -0.5,332.833 -0.5,166.167 -0.5,-0.5 Z"/></g>
<g><path style="opacity:1" fill="#f9f9f9" d="M 246.5,113.5 C 254.212,112.715 257.712,116.048 257,123.5C 255.622,125.213 253.955,126.547 252,127.5C 252.636,138.133 255.636,148.133 261,157.5C 266.159,164.57 272.325,165.403 279.5,160C 287.118,154.551 293.118,147.718 297.5,139.5C 291.015,130.777 293.349,126.944 304.5,128C 308.035,130.838 308.368,134.005 305.5,137.5C 303.49,139.171 301.157,139.838 298.5,139.5C 297.987,143.553 297.154,147.553 296,151.5C 294.086,170.631 301.253,175.465 317.5,166C 320,163.5 322.5,161 325,158.5C 323.563,154.749 324.396,151.582 327.5,149C 331.45,147.975 333.783,149.475 334.5,153.5C 333.365,157.457 330.698,159.29 326.5,159C 317.888,168.382 310.888,178.882 305.5,190.5C 268.167,191.833 230.833,191.833 193.5,190.5C 188.295,178.797 181.295,168.297 172.5,159C 167.206,159.041 164.706,156.541 165,151.5C 167.332,148.209 170.165,147.709 173.5,150C 174.788,152.466 174.788,154.966 173.5,157.5C 178.035,163.433 183.702,167.933 190.5,171C 197.244,172.714 201.41,170.214 203,163.5C 203.972,155.632 203.139,147.965 200.5,140.5C 195.773,139.93 192.773,137.43 191.5,133C 191.7,130.463 193.033,128.796 195.5,128C 200.755,126.192 204.089,127.859 205.5,133C 204.068,135.383 203.235,137.883 203,140.5C 206.667,145.833 210.333,151.167 214,156.5C 221.565,164.826 229.565,165.493 238,158.5C 242.689,149.1 246.189,139.266 248.5,129C 244.897,127.229 242.564,124.396 241.5,120.5C 242.06,117.288 243.727,114.955 246.5,113.5 Z"/></g>
<g><path style="opacity:1" fill="#fafafa" d="M 188.5,202.5 C 195.48,209.145 202.48,215.812 209.5,222.5C 216.52,215.812 223.52,209.145 230.5,202.5C 234.833,202.5 239.167,202.5 243.5,202.5C 244.163,262.509 243.496,322.176 241.5,381.5C 234.53,373.02 227.697,364.353 221,355.5C 220.667,318.833 220.333,282.167 220,245.5C 216.651,249.016 213.151,252.349 209.5,255.5C 205.812,252.479 202.479,249.146 199.5,245.5C 199.44,244.957 199.107,244.624 198.5,244.5C 197.833,270.997 197.167,297.33 196.5,323.5C 189.013,314.524 182.013,305.191 175.5,295.5C 175.5,264.5 175.5,233.5 175.5,202.5C 179.833,202.5 184.167,202.5 188.5,202.5 Z"/></g>
<g><path style="opacity:1" fill="#fbfbfb" d="M 254.5,202.5 C 262.167,202.5 269.833,202.5 277.5,202.5C 277.17,218.342 277.504,234.009 278.5,249.5C 286.167,242.5 293.5,235.167 300.5,227.5C 301.493,219.35 301.826,211.017 301.5,202.5C 309.167,202.5 316.833,202.5 324.5,202.5C 324.667,214.171 324.5,225.838 324,237.5C 314.167,247.333 304.333,257.167 294.5,267C 304.167,276.667 313.833,286.333 323.5,296C 313.334,309.661 303.001,323.161 292.5,336.5C 291.505,324.345 291.171,312.011 291.5,299.5C 291.611,298.883 291.944,298.383 292.5,298C 287.963,293.631 283.63,289.131 279.5,284.5C 279.44,283.957 279.107,283.624 278.5,283.5C 277.5,307.491 277.167,331.491 277.5,355.5C 270.215,365.291 262.715,374.958 255,384.5C 254.5,323.834 254.333,263.168 254.5,202.5 Z"/></g>
<g><path style="opacity:1" fill="#808080" d="M 324.5,202.5 C 316.833,202.5 309.167,202.5 301.5,202.5C 301.826,211.017 301.493,219.35 300.5,227.5C 300.5,218.833 300.5,210.167 300.5,201.5C 308.684,201.174 316.684,201.508 324.5,202.5 Z"/></g>
<g><path style="opacity:1" fill="#c7c7c7" d="M 188.5,202.5 C 184.167,202.5 179.833,202.5 175.5,202.5C 175.5,233.5 175.5,264.5 175.5,295.5C 174.502,264.338 174.168,233.004 174.5,201.5C 179.363,201.181 184.03,201.514 188.5,202.5 Z"/></g>
<g><path style="opacity:1" fill="#d1d1d1" d="M 230.5,202.5 C 234.97,201.514 239.637,201.181 244.5,201.5C 244.667,262.501 244.5,323.501 244,384.5C 242.955,383.627 242.122,382.627 241.5,381.5C 243.496,322.176 244.163,262.509 243.5,202.5C 239.167,202.5 234.833,202.5 230.5,202.5 Z"/></g>
<g><path style="opacity:1" fill="#7f7f7f" d="M 254.5,202.5 C 262.316,201.508 270.316,201.174 278.5,201.5C 278.5,217.5 278.5,233.5 278.5,249.5C 277.504,234.009 277.17,218.342 277.5,202.5C 269.833,202.5 262.167,202.5 254.5,202.5 Z"/></g>
<g><path style="opacity:1" fill="#8c8c8c" d="M 199.5,245.5 C 198.668,271.997 198.168,298.664 198,325.5C 197.283,324.956 196.783,324.289 196.5,323.5C 197.167,297.33 197.833,270.997 198.5,244.5C 199.107,244.624 199.44,244.957 199.5,245.5 Z"/></g>
<g><path style="opacity:1" fill="#868686" d="M 279.5,284.5 C 278.833,308.167 278.167,331.833 277.5,355.5C 277.167,331.491 277.5,307.491 278.5,283.5C 279.107,283.624 279.44,283.957 279.5,284.5 Z"/></g>
<g><path style="opacity:1" fill="#828282" d="M 291.5,299.5 C 291.171,312.011 291.505,324.345 292.5,336.5C 292.44,337.043 292.107,337.376 291.5,337.5C 290.175,324.673 290.175,312.006 291.5,299.5 Z"/></g>
</svg>
